<svg height="460pt" viewBox="0 -19 460.8 460" width="460pt" xmlns="http://www.w3.org/2000/svg"><path d="m416 394v-152.800781c0-12.800781-10.398438-24-24-24h-161.601562c-12.796876 0-24 10.402343-24 24v6.402343h-48.796876l48.796876 62.398438v84.800781c0 12.800781 10.402343 24 24 24h161.601562c12.800781-.800781 24-11.199219 24-24.800781zm0 0" fill="#84dbff"/><path d="m244 417.199219c-12.800781 0-24-10.398438-24-24v-84l-36-49.597657h36.800781v-17.601562c0-6.398438 5.597657-12 12-12h180c-4-7.199219-12-12.800781-20.800781-12.800781h-161.601562c-12.796876 0-24 10.402343-24 24v6.402343h-48.796876l48.796876 62.398438v84.800781c0 12.800781 10.402343 24 24 24h21.601562zm0 0" fill="#c5f1ff"/><path d="m432.800781 217.199219h-40.800781c12.800781 0 24 10.402343 24 24v152.800781c0 12.800781-10.398438 24-24 24h40.800781c12.800781 0 24-10.398438 24-24v-152.800781c-.800781-12.800781-11.199219-24-24-24zm0 0" fill="#52badb"/><path d="m432.800781 213.199219h-202.402343c-15.199219 0-28 12.800781-28 28v2.402343h-44.796876c-1.601562 0-3.203124.796876-4 2.398438-.800781 1.601562-.800781 3.199219.796876 4l48 61.601562v83.199219c0 15.199219 12.800781 28 28 28h202.402343c15.199219 0 28-12.800781 28-28v-153.601562c-.800781-15.199219-12.800781-28-28-28zm-221.601562 180.800781v-84c0-.800781 0-1.601562-.800781-2.398438l-44-56h40.800781c2.402343 0 4-1.601562 4-4v-6.402343c0-11.199219 8.800781-20 20-20h161.601562c11.199219 0 20 8.800781 20 20v152.800781c0 11.199219-8.800781 20-20 20h-162.402343c-10.398438 0-19.199219-8.800781-19.199219-20zm240.800781 0c0 11.199219-8.800781 20-20 20h-20.800781c.800781-.800781.800781-1.601562 1.601562-2.398438.800781-.800781.800781-1.601562 1.597657-2.402343.800781-.800781.800781-1.597657 1.601562-2.398438s.800781-1.601562 1.601562-2.402343c.796876-.796876.796876-1.597657.796876-3.199219 0-.800781.800781-1.597657.800781-2.398438 0-1.601562.800781-4 .800781-5.601562v-152c0-1.597657 0-4-.800781-5.597657 0-.800781 0-.800781-.800781-1.601562 0-.800781-.796876-2.398438-.796876-3.199219s-.800781-.800781-.800781-1.601562c-.800781-.800781-.800781-2.398438-1.601562-3.199219 0-.800781-.800781-.800781-1.597657-1.601562-.800781-.796876-1.601562-1.597657-2.402343-2.398438h20.800781c11.199219 0 20 8.800781 20 20zm0 0" fill="#63312d"/><path d="m193.601562 154.800781h-138.402343c-28 0-51.199219 22.398438-51.199219 51.199219v80.800781h100.800781v-97.601562l88-9.597657zm0 0" fill="#fff2d2"/><path d="m99.199219 122.800781c0 17.597657-14.398438 32-32 32-17.597657 0-32-14.402343-32-32 0-17.601562 14.402343-32 32-32 17.601562 0 32 14.398438 32 32zm0 0" fill="#f9dd9d"/><path d="m101.601562 198h8v88h-8zm0 0" fill="#63312d"/><path d="m67.199219 242.800781 25.601562-88h-51.199219zm0 0" fill="#fff2d2"/><path d="m29.601562 286.800781h76v132h-76zm0 0" fill="#f9dd9d"/><path d="m67.199219 173.199219 15.199219-18.398438h-30.398438zm0 0" fill="#84dbff"/><path d="m62.398438 166.800781-10.398438 23.199219 15.199219 52.800781 15.199219-52.800781-10.398438-23.199219-4.800781 6.398438zm0 0" fill="#f9a287"/><path d="m193.601562 150.800781h-104c8-6.402343 13.597657-16.800781 13.597657-28 0-20-16-36-36-36s-36 16-36 36c0 12 5.601562 22.398438 14.402343 28.800781-25.601562 4.796876-45.601562 27.199219-45.601562 54.398438v80.800781c0 2.398438 1.601562 4 4 4h20.800781v128c0 2.398438 1.597657 4 4 4h76c2.398438 0 4-1.601562 4-4v-226.402343l84.800781-8.796876c2.398438 0 3.199219-1.601562 3.199219-4v-24.800781c.800781-2.402343-.800781-4-3.199219-4zm-132.800781 8h13.597657l-6.398438 8zm-10.402343 0 7.203124 8.800781-4.800781 10.398438-5.601562-19.199219c1.601562.800781 2.402343 0 3.199219 0zm12.800781 16 .800781.800781c.800781.796876 1.601562 1.597657 3.199219 1.597657.800781 0 2.402343-.800781 3.199219-1.597657l.800781-.800781 7.199219 15.199219-11.199219 38.398438-11.199219-37.597657zm18.402343 3.199219-4.800781-10.398438 7.199219-8.800781h3.199219zm-42.402343-55.199219c0-15.199219 12.800781-28 28-28s28 12.800781 28 28-12.800781 28-28 28-28-12.800781-28-28zm62.402343 292h-29.601562v-105.601562h-8v105.601562h-30.398438v-124h68zm88-238.402343-84.800781 8.800781c-2.402343 0-3.199219 1.601562-3.199219 4v93.601562h-68v-80h-8v80h-16.800781v-76.800781c0-20 12.800781-37.601562 31.199219-44l24 82.398438c.800781 1.601562 2.398438 3.203124 4 3.203124s3.199219-.800781 4-3.203124l24.800781-84.796876h93.597657c-.796876-.800781-.796876 16.796876-.796876 16.796876zm0 0" fill="#63312d"/><path d="m197.601562 119.601562h-23.203124c-13.597657 0-24-10.402343-24-24v-27.203124c0-13.597657 10.402343-24 24-24h23.203124zm0 0" fill="#84dbff"/><path d="m197.601562 53.199219v57.601562c6.398438.800781 53.597657 8 88 40.800781v-139.203124c-34.402343 32.800781-81.601562 40-88 40.800781zm0 0" fill="#fff2d2"/><path d="m209.601562 188.398438h-18.402343l-24-68.796876h26.402343zm0 0" fill="#ead194"/><path d="m285.601562 4.398438h23.199219v154.402343h-23.199219zm0 0" fill="#84dbff"/><path d="m136 70h14.398438v24.800781h-14.398438zm0 0" fill="#fff2d2"/><path d="m308.800781 58.800781v46.398438c12.800781 0 23.199219-10.398438 23.199219-23.199219s-10.398438-23.199219-23.199219-23.199219zm0 0" fill="#f9a287"/><g fill="#63312d"><path d="m336 82c0-13.601562-10.398438-24.800781-23.199219-27.199219v-50.402343c0-2.398438-1.601562-4-4-4h-23.199219c-2.402343 0-4 1.601562-4 4v6.402343c-28.800781 26.398438-66.402343 35.199219-80 37.597657v-4c0-2.398438-1.601562-4-4-4h-23.203124c-14.398438 0-26.398438 11.203124-28 25.601562h-10.398438c-2.398438 0-4 1.601562-4 4v24.800781c0 2.398438 1.601562 4 4 4h10.398438c.800781 10.398438 8 19.199219 16.800781 23.199219l24 68.800781c.800781 1.597657 2.402343 2.398438 4 2.398438h17.601562c1.597657 0 2.398438-.800781 3.199219-1.597657.800781-.800781.800781-2.402343.800781-3.203124l-14.402343-64.796876c1.601562 0 3.203124-1.601562 3.203124-4v-4c13.597657 2.398438 51.199219 11.199219 80 37.597657v6.402343c0 2.398438 1.597657 4 4 4h23.199219c2.398438 0 4-1.601562 4-4v-50.402343c12.800781-2.398438 23.199219-13.597657 23.199219-27.199219zm-196-8h6.398438v16.800781h-6.398438zm14.398438 21.601562v-26.402343c0-11.199219 8.800781-20 20-20h19.203124v66.402343h-19.203124c-11.199219 0-20-8.800781-20-20zm40 88.796876-21.597657-60.796876h17.597657l14.402343 60.796876zm7.203124-76.796876v-51.203124c12.796876-2.398438 49.597657-9.597657 80-35.199219v120.800781c-30.402343-24.800781-68-32.800781-80-34.398438zm103.199219 48h-15.199219v-147.203124h15.199219zm8-55.203124v-37.597657c8.800781 1.597657 15.199219 9.597657 15.199219 19.199219s-6.398438 16.800781-15.199219 18.398438zm0 0"/><path d="m354.398438 78h24v8h-24zm0 0"/><path d="m349.824219 56.453125 22.714843-7.75 2.582032 7.570313-22.710938 7.75zm0 0"/><path d="m349.5 106.789062 2.582031-7.570312 22.714844 7.75-2.582031 7.570312zm0 0"/><path d="m273.601562 325.199219h-17.601562v38.402343h-8.800781v-88.800781h27.199219c20.800781 0 29.601562 11.199219 29.601562 25.597657 0 13.601562-9.601562 24.800781-30.398438 24.800781zm0-7.199219c15.199219 0 20.796876-7.199219 20.796876-17.601562 0-11.199219-5.597657-18.398438-20.796876-18.398438h-17.601562v36zm0 0"/><path d="m345.601562 274.800781c20.796876 0 30.398438 11.199219 30.398438 25.597657 0 12-7.199219 22.402343-21.601562 25.601562l23.203124 37.601562h-11.203124l-21.597657-36.800781h-16v36.800781h-8.800781v-88.800781zm0 7.199219h-17.601562v36.800781h17.601562c14.398438 0 20.796876-8 20.796876-18.402343 0-11.199219-5.597657-18.398438-20.796876-18.398438zm0 0"/></g></svg>