<svg id="Layer_1" enable-background="new 0 0 64 64" viewBox="0 0 64 64" xmlns="http://www.w3.org/2000/svg"><g><g><path d="m30.19 39.63c1.55.86 2.97 1.92 4.22 3.17 3.39 3.4 5.49 8.09 5.49 13.27v3.26h-8.47-20.6-8.46v-3.26c0-7.08 3.92-13.24 9.71-16.43v-.01z" fill="#91acaf"/></g><g><path d="m33.36 26.19v5.22c0 6.76-5.47 12.22-12.22 12.22-6.76 0-12.22-5.47-12.22-12.22v-5.41z" fill="#ffe499"/></g><g><path d="m34.31 25.84c-5.1 2.16-7.98-.77-7.98-.77-4.89 3.04-18.38.77-18.38.77s-.32-11.74 13.18-11.74 13.18 11.74 13.18 11.74z" fill="#91acaf"/></g><g><path d="m19.39 50.23.87 2.89-.71 6.22z" fill="#91acaf"/></g><g><path d="m26.04 42.61c-1.11 1.98-2.58 4.16-4.38 5.88l2.27 1.74 2.85 2.19 4.84-11.91z" fill="#83d3fc"/></g><g><path d="m11.49 39.98 5.05 12.44 2.85-2.19 2.26-1.74c-1.66-1.58-3.03-3.54-4.1-5.38z" fill="#83d3fc"/></g><g><path d="m23.72 59.34-.75-6.22.96-2.89z" fill="#91acaf"/></g><g><path d="m36.5 6.99v12.75c0 1.29 1.04 2.33 2.33 2.33h1.63l-1.39 5.01 9.24-5.01h11c1.29 0 2.33-1.04 2.33-2.33v-12.75c0-1.28-1.04-2.32-2.32-2.32h-20.49c-1.29-.01-2.33 1.04-2.33 2.32z" fill="#83d3fc"/></g><g><path d="m55.46 11.93-1.44-.95-4.95-3.29-4.96 3.29-1.43.95h1.43v6.85h9.91v-6.85z" fill="#91acaf"/></g><g><path d="m47.56 14.03h3.02v4.75h-3.02z" fill="#ffe499"/></g><g><path d="m59.61 45.12h-18.07c-.56 0-1.02-.46-1.02-1.02v-9.74c0-.56.46-1.02 1.02-1.02h18.07c.56 0 1.02.46 1.02 1.02v9.74c0 .56-.46 1.02-1.02 1.02z" fill="#ffe499"/></g><g><path d="m18.97 50.03.86 3.62-.86 5.93 5.74.23-1.26-6.69.87-3.28-2.9-1.58z" fill="#83d3fc"/></g><g><path d="m21.14 44.64c-7.29 0-13.22-5.93-13.22-13.22v-5.42c0-.55.45-1 1-1s1 .45 1 1v5.42c0 6.19 5.03 11.22 11.22 11.22s11.22-5.03 11.22-11.22v-5.22c0-.55.45-1 1-1s1 .45 1 1v5.22c0 7.29-5.93 13.22-13.22 13.22z"/></g><g><path d="m39.9 60.34h-37.53c-.55 0-1-.45-1-1v-3.26c0-7.18 3.89-13.79 10.16-17.27.16-.11.35-.17.55-.17.55 0 1 .44 1 1 0 .36-.2.71-.52.89-5.67 3.12-9.2 9.08-9.2 15.56v2.26h35.54v-2.26c0-4.74-1.85-9.2-5.2-12.57-1.19-1.19-2.53-2.19-3.99-2.99-.32-.17-.52-.51-.52-.88 0-.55.45-1 1-1 .21 0 .41.07.57.18 1.59.88 3.06 1.98 4.35 3.28 3.73 3.74 5.79 8.71 5.79 13.98v3.26c0 .54-.45.99-1 .99z"/></g><g><path d="m10.83 60.33c-.55 0-1-.45-1-1v-6.6c0-.55.45-1 1-1s1 .45 1 1v6.6c0 .55-.44 1-1 1z"/></g><g><path d="m31.43 60.33c-.55 0-1-.45-1-1v-6.6c0-.55.45-1 1-1s1 .45 1 1v6.6c0 .55-.45 1-1 1z"/></g><g><path d="m17.66 27.65c-4.86 0-9.54-.77-9.87-.83-.47-.08-.82-.48-.83-.96 0-.21-.1-5.2 3.52-8.92 2.49-2.56 6.08-3.85 10.66-3.85s8.17 1.3 10.66 3.85c3.62 3.72 3.52 8.71 3.52 8.92-.01.39-.25.74-.61.89-4.34 1.84-7.28.36-8.48-.49-2.18 1.07-5.42 1.39-8.57 1.39zm-8.67-2.66c4.21.62 13.33 1.4 16.81-.77.4-.25.91-.19 1.24.15.09.09 2.28 2.17 6.24.79-.11-1.33-.61-4.45-2.94-6.84-2.1-2.14-5.2-3.23-9.21-3.23-4.03 0-7.13 1.09-9.23 3.25-2.23 2.3-2.78 5.24-2.91 6.65z"/></g><g><path d="m19.55 60.34c-.04 0-.08 0-.12-.01-.55-.06-.94-.56-.88-1.11l.69-6.01-.81-2.7c-.16-.53.14-1.09.67-1.24.52-.16 1.09.14 1.24.67l.87 2.9c.04.13.05.27.04.4l-.71 6.21c-.06.51-.49.89-.99.89z"/></g><g><path d="m26.78 53.42c-.22 0-.43-.07-.61-.21l-5.12-3.93c-.23-.18-.38-.45-.39-.74-.02-.29.1-.58.31-.78 1.48-1.41 2.89-3.31 4.2-5.65.27-.48.88-.65 1.36-.38s.65.88.38 1.36c-1.17 2.09-2.43 3.86-3.75 5.29l3.19 2.44 4.34-10.69c.21-.51.79-.76 1.3-.55s.76.79.55 1.3l-4.84 11.91c-.12.29-.36.51-.67.59-.08.03-.16.04-.25.04z"/></g><g><path d="m16.54 53.42c-.09 0-.18-.01-.26-.04-.3-.08-.55-.3-.67-.59l-5.05-12.44c-.21-.51.04-1.09.55-1.3s1.09.04 1.3.55l4.56 11.22 3.18-2.44c-1.21-1.3-2.37-2.91-3.46-4.78-.28-.48-.12-1.09.36-1.37s1.09-.12 1.37.36c1.24 2.12 2.56 3.86 3.93 5.16.21.2.32.49.31.78-.02.29-.16.56-.39.74l-5.11 3.93c-.18.15-.4.22-.62.22z"/></g><g><path d="m23.72 60.34c-.5 0-.93-.37-.99-.88l-.75-6.21c-.02-.15 0-.29.04-.43l.96-2.9c.17-.52.73-.81 1.26-.64.52.17.81.74.64 1.26l-.89 2.68.72 5.99c.07.55-.33 1.05-.87 1.11-.04.01-.08.02-.12.02z"/></g><g><path d="m22.97 54.12h-2.72c-.55 0-1-.45-1-1s.45-1 1-1h2.72c.55 0 1 .45 1 1s-.44 1-1 1z"/></g><g><path d="m39.07 28.08c-.22 0-.44-.07-.62-.22-.31-.25-.45-.66-.34-1.05l1.04-3.74h-.32c-1.84 0-3.33-1.49-3.33-3.33v-12.75c0-1.84 1.49-3.33 3.33-3.33h20.48c1.83 0 3.32 1.49 3.32 3.32v12.75c0 1.84-1.49 3.33-3.33 3.33h-10.74l-9.01 4.89c-.15.09-.32.13-.48.13zm-.24-22.42c-.73 0-1.33.6-1.33 1.33v12.75c0 .73.6 1.33 1.33 1.33h1.63c.31 0 .61.15.8.4s.25.57.17.87l-.76 2.74 7.16-3.88c.15-.08.31-.12.48-.12h11c.73 0 1.33-.6 1.33-1.33v-12.76c0-.73-.59-1.33-1.32-1.33z"/></g><g><path d="m55.45 12.93c-.19 0-.38-.05-.55-.17l-5.84-3.87-5.84 3.87c-.46.31-1.08.18-1.39-.28s-.18-1.08.28-1.39l6.39-4.24c.33-.22.77-.22 1.11 0l6.39 4.24c.46.3.59.93.28 1.39-.18.3-.5.45-.83.45z"/></g><g><path d="m54.02 19.78h-9.91c-.55 0-1-.45-1-1v-7.8c0-.55.45-1 1-1s1 .45 1 1v6.8h7.91v-6.8c0-.55.45-1 1-1s1 .45 1 1v7.8c0 .56-.45 1-1 1z"/></g><g><path d="m55.11 19.78h-12.09c-.55 0-1-.45-1-1s.45-1 1-1h12.09c.55 0 1 .45 1 1s-.45 1-1 1z"/></g><g><path d="m50.58 19.78h-3.02c-.55 0-1-.45-1-1v-4.75c0-.55.45-1 1-1h3.02c.55 0 1 .45 1 1v4.75c0 .56-.45 1-1 1zm-2.02-2h1.02v-2.75h-1.02z"/></g><g><path d="m59.61 46.12h-18.07c-1.12 0-2.02-.91-2.02-2.02v-9.74c0-1.12.91-2.02 2.02-2.02h18.07c1.12 0 2.02.91 2.02 2.02v9.74c0 1.11-.91 2.02-2.02 2.02zm-18.07-11.78-.02 9.76 18.09.02c.01 0 .02-.01.02-.02v-9.74z"/></g><g><path d="m55.34 34.34h-9.53c-.55 0-1-.45-1-1v-2.87c0-1.83 1.49-3.31 3.32-3.31h4.9c1.83 0 3.31 1.49 3.31 3.31v2.87c0 .55-.45 1-1 1zm-8.53-2h7.53v-1.87c0-.72-.59-1.31-1.31-1.31h-4.9c-.73 0-1.32.59-1.32 1.31z"/></g><g><path d="m60.63 38.68h-20.11c-.55 0-1-.45-1-1s.45-1 1-1h20.11c.55 0 1 .45 1 1s-.45 1-1 1z"/></g></g></svg>