<svg id="Layer_1" enable-background="new 0 0 73 73" height="512" viewBox="0 0 73 73" width="512" xmlns="http://www.w3.org/2000/svg"><g id="_x32_"><g><g><g><g><g><g><path d="m55.5746727 25.5113125-4.6737404 12.5152187c-.6056557 1.5103302-1.9993896 2.5464325-3.6119728 2.6996384h-.0219116l-8.3605347.9049873-.1874466.1678123.1874466-12.2223053 6.1349869.6566486 4.4840584-6.9402866z" fill="#fd62a1"/></g><g><path d="m47.2670479 40.7261696-8.3605347.9049873v-8.1726723z" fill="#ff2d84"/></g><g><g><path d="m30.3773823 7.7139654s-2.1910763-3.2188716-6.3311081-2.5147433-5.8126984 3.3576646-6.3998871 5.2229381c-5.7185478 18.1655884 6.4805946 24.2334671 7.254818 23.2050247.7742252-1.0284386 5.618124-1.9991245 5.618124-1.9991245s8.114357 1.4144955 7.500824-11.1052094c-.1316643-2.686698-1.1020318-15.0495954-7.6427708-12.8088856z" fill="#251a38"/></g><g><g><g><g><g><path d="m15.683 29.574h23.197v28.475h-23.197z" fill="#fd62a1"/></g></g><path d="m15.6828222 35.3000755v15.8418083c4.1230211.6788864 8.3603525.686039 12.4833727.0071526-1.6149101-.7502327-3.2583885-1.4291191-4.9376278-2.022171-.6716881-.2358589-1.3719425-.4716339-1.9007092-.9504204-.5502243-.4858513-.8717861-1.1717987-1.1647358-1.8435287-.5787907-1.2933083-1.129015-2.5938568-1.6577816-3.9015541-.4573288-1.1288834-.9003525-2.2650986-1.2147598-3.4441376-.2715359-1.0004005-.2143593-2.0936966-.47159-3.0725517-.1572266-.6002923-.6502743-.771782-1.1361685-.6145974z" fill="#ff2d84"/><g><g><path d="m15.706 58.049h23.2v9.853h-23.2z" fill="#2d3548"/></g></g><g><path d="m25.551775 22.2897816c-.0014229.0333214-.0099201.0646-.0099201.0982533 0 1.2661152 1.0263729 2.2924881 2.2924423 2.2924881 1.2661152 0 2.2924881-1.0263729 2.2924881-2.2924881 0-.0336533-.0084972-.0649319-.0099201-.0982533z" fill="#fff"/></g></g></g><g><g><path d="m30.6518497 23.7545052.0480595 5.8196201h-6.7410622l-.0480575-5.8196201z" fill="#fdcbc0"/></g><g><path d="m30.6518497 29.579834-3.3224716 5.8196182-3.4185886-5.8196182z" fill="#fdcbc0"/></g><g><path d="m30.6518497 23.7545052v3.5047626c-2.3869286.1122608-4.6225681-.4588413-6.7410603-1.6010475v-1.9037151z" fill="#f1b2a9"/></g><g><ellipse cx="33.858" cy="17.864" fill="#fdcbc0" rx="1.645" ry="1.92"/></g><g><path d="m34.5167389 18.7292671c-.0384026 0-.0762596-.0156841-.1038437-.0465126-.0502968-.0573292-.0454292-.1449451.011898-.1957836.1974068-.1746922.306118-.3958969.306118-.6230507 0-.2276936-.1087112-.4488983-.3055763-.6230488-.0573273-.0508385-.0627365-.1379147-.0124397-.1952438.0508385-.0573292.1389961-.0627365.1952438-.0124378.2579803.2276936.3996811.5224514.3996811.8307304 0 .3077393-.1417007.6024971-.3991394.8307323-.0265007.0232564-.059494.0346146-.0919418.0346146z" fill="#f1b2a9"/></g><g><ellipse cx="20.805" cy="17.864" fill="#fdcbc0" rx="1.645" ry="1.92"/></g><g><path d="m20.1461811 18.7292671c.0384007 0 .0762596-.0156841.1038418-.0465126.0502987-.0573292.0454311-.1449451-.011898-.1957836-.1974068-.1746922-.3061161-.3958969-.3061161-.6230507 0-.2276936.1087093-.4488983.3055744-.6230488.0573292-.0508385.0627384-.1379147.0124397-.1952438-.0508385-.0573292-.1389961-.0627365-.1952438-.0124378-.2579803.2276936-.3996811.5224514-.3996811.8307304 0 .3077393.1417007.6024971.3991413.8307323.0265007.0232564.0594921.0346146.0919418.0346146z" fill="#f1b2a9"/></g><g><path d="m34.0796623 15.7710724v3.5336666c0 3.7564831-3.0468464 6.7962818-6.7962837 6.7962818-3.7563553 0-6.7962399-3.0397987-6.7962399-6.7962818v-3.5336666c0-3.756484 3.0398846-6.7962828 6.7962399-6.7962828 1.8782005 0 3.5755291.7581244 4.8068008 1.9893961 1.2312317 1.2312727 1.9894829 2.9285603 1.9894829 4.8068867z" fill="#fdcbc0"/></g><g><path d="m25.2142658 17.4070168c0 .4718113-.2589264.8515759-.5811329.8515759-.3222084 0-.5868587-.3797646-.5868587-.8515759s.2646503-.8573017.5868587-.8573017c.3222065-.0000001.5811329.3854904.5811329.8573017z" fill="#333"/></g><g><path d="m30.5193291 17.4070168c0 .4718113-.2589245.8515759-.5811329.8515759-.3222065 0-.5868568-.3797646-.5868568-.8515759s.2646503-.8573017.5868568-.8573017c.3222084-.0000001.5811329.3854904.5811329.8573017z" fill="#333"/></g><g><path d="m33.7931709 13.799058c-3.1229954-.901288-3.6048889-2.9241161-3.6677971-3.5668707 2.6200294 1.7184057-6.5507526 7.3959484-9.6415138 5.718873l-1.4741383-1.4045687 1.9911404-4.1639357 1.7186985-1.8933182 5.4634171-.3353395 1.9562588 1.3553438s1.4462128-1.0408134 1.5579796-1.0408134c.1117649 0 2.4941902 1.9421005 2.6828384 1.9421005.1816139 0 2.9762192 4.4225188-.5868836 3.3885289z" fill="#251a38"/></g></g></g></g><g><path d="m25.1595478 21.0987282c-.0012798.0332603-.0089054.0644817-.0089054.098074 0 1.2638302.9213238 2.2883511 2.0578117 2.2883511 1.1365318 0 2.0578556-1.0245209 2.0578556-2.2883511 0-.0335922-.0076256-.0648136-.0089035-.098074z" fill="#fff"/></g><g><path d="m49.5250053 23.2950687-1.2277145-2.6735363c-.1834679-.3995266.0394211-.8677006.46521-.9771748h.0000038c.3325882-.0855103.6784134.0810089.8189545.3943405l.572216 1.2757435 1.0867271-5.7128687c.0879402-.4623003.578476-.7270288 1.0131798-.5467863l.0000038.000001c.3215256.133317.5071793.4722023.4464417.8149338l-.813446 4.5902815 2.6004295.3017731c1.3228683.1535149 2.170639 1.4837284 1.751152 2.7476788l-.6652222 2.0043793z" fill="#fdcbc0"/></g></g></g><g><path d="m21.0729351 31.1603546-8.5836 18.1469193c-.8262882 2.1971703-3.2237329 3.3302155-5.3520532 2.5289536-2.1408134-.8075294-3.1924415-3.2675552-2.3411288-5.4709892l6.7119513-12.8825531c.4381876-1.1267776 1.376627-2.2554264 2.2693777-2.9812222 1.0804005-.8783531 1.7575064-.9058914 1.9606771-.921629z" fill="#fd62a1"/><path d="m19.7087917 46.283783 2.5343456 1.2582092-.0742798-.9576797c.3129864-.319252.3568096-.8199844.1064053-1.1893616-.1815186-.2753906-.4819736-.4193535-.7886925-.4193535-.2253799 0-.4569855.0813026-.638504.2503281z" fill="#fdcbc0"/><path d="m33.799408 54.9333954h-9.769598c-.5527363 0-1.0224495-.3831062-1.1050549-.9013023l-1.839035-11.5366249c-.1021881-.6410409.4212799-1.2180253 1.1050529-1.2180253h13.44767c.683773 0 1.2072411.5769844 1.1050529 1.2180252l-1.839035 11.5366249c-.0826034.5181962-.5523186.9013024-1.1050529.9013024z" fill="#2d3548"/><path d="m4.5206976 47.6691437v-.0000763c.2275567-2.2781677 2.2693396-3.933567 4.5453272-3.6851501l10.640068 2.2987327v6.4751091l-11.4962711-.580883c-2.2635326-.2260285-3.9151907-2.2442398-3.6891241-4.5077324z" fill="#fd62a1"/><path d="m19.7087917 46.283783v6.4726028l4.788702-.0751114c1.2394123-.0187988 2.2785091-.9389572 2.4537983-2.1596489.0187607-.1189003.0250263-.2315292.0250263-.3442383 0-1.3333244-1.0578938-2.4663696-2.4225082-2.5164223l-2.3106728-.1189728" fill="#fdcbc0"/></g></g><g><g><g><path d="m35.451252 17.3584023-.1134453-.9774113c-.533802-4.5948019-3.9598541-8.0602245-7.9688511-8.0602245h-.1586533c-4.0092773 0-7.4353313 3.4654226-7.968853 8.0602245l-.1134434.9774113-.5700264-.0883236.1134434-.9774113c.5717106-4.9240694 4.2426243-8.6369286 8.5388794-8.6369286h.1586533c4.2959747 0 7.9668865 3.7128596 8.5388775 8.6369286l.1134453.9774113z" fill="#deebfe"/></g></g><g><g><g><path d="m18.3161964 19.2131882c.7895699.0178013 1.4522572-.611124 1.4700584-1.4006939.0168209-.7956543-.6111259-1.4522572-1.4067745-1.4690418-.7956486-.0167828-1.4522572.6111259-1.4700565 1.4006958-.016798.7955741.6111241 1.4522571 1.4067726 1.4690399z" fill="#fdce4b"/></g><g><path d="m17.5062122 16.7783852.0254307 2.345747c.0122147 1.1267643.9333439 2.0280952 2.0600319 2.0158806l.4125404-.0044708c.2524166-.002737.4534702-.2020035.4507332-.4543839l-.0598736-5.5227346c-.002737-.2524548-.2080612-.4472408-.4604778-.4445038l-.4125404.0044727c-1.1266899.0122146-2.028059.9333048-2.0158444 2.0599928z" fill="#38aefa"/></g><g><path d="m19.7114658 21.1364307.2935429.0009098c.2490196-.004221.4523773-.206789.4481945-.4558163l-.0555553-5.5217829c-.0051613-.2551107-.2117653-.44522-.461813-.4471521l-.3360596.0061998c.0759621.0810318.1256447.1913004.1277103.3157797l.0637856 5.8326206c-.0019607.1001569-.0302582.1922971-.0798054.2692414z" fill="#3778f8"/></g></g><g><g><path d="m36.1015244 19.2138405c-.7895699.0177994-1.4522591-.6111259-1.4700584-1.4006958-.0168228-.7956543.6111259-1.4522572 1.4067726-1.4690399.7956505-.0167847 1.4522591.611124 1.4700584 1.4006939.0167961.7955741-.611126 1.4522571-1.4067726 1.4690418z" fill="#fdce4b"/></g><g><path d="m34.9509087 20.7598076v1.5713902c0 .2624073-.2132339.4756393-.4756393.4756393h-2.8437119v.445612h2.8437119c.5078392 0 .9212494-.4134102.9212494-.9212513v-1.5713902z" fill="#deebfe"/></g><path d="m32.6873817 23.0032063c0 .3609447-.294117.6550636-.6506042.6550636h-.7218876c-.3564835 0-.6506023-.2941189-.6506023-.6550636s.2941189-.6505756.6506023-.6505756h.7218876c.3564873-.0000001.6506042.2896308.6506042.6505756z" fill="#deebfe"/><g><path d="m36.9115067 16.7790375-.0254288 2.3457451c-.0122185 1.1267643-.9333458 2.0280972-2.0600319 2.0158825l-.4125404-.0044727c-.2524185-.002737-.4534721-.2020035-.4507332-.4543819l.0598717-5.5227365c.002739-.2524548.2080612-.4472399.4604797-.4445038l.4125404.0044727c1.1266861.0122145 2.0280571.9333056 2.0158425 2.0599946z" fill="#38aefa"/></g><g><path d="m34.7062531 21.1370831-.293541.0009079c-.2490196-.0042191-.4523773-.206789-.4481964-.4558144l.0555534-5.5217838c.0051651-.2551107.2117653-.44522.4618149-.4471531l.3360596.0061998c-.0759621.0810318-.1256447.1913004-.1277084.3157797l-.0637856 5.8326206c.0019607.1001568.0302582.192297.0798035.2692433z" fill="#3778f8"/></g></g></g></g></g><g><path d="m65.3970108 35.3503723v31.5095291c0 .512413-.4125824.9249954-.9249573.9249954h-25.493782c-.5124168 0-.9249992-.4125824-.9249992-.9249954v-31.5095291c0-.5123367.4125824-.9183388.9249992-.9183388h25.493782c.5123749 0 .9249573.4060021.9249573.9183388z" fill="#70739c"/><path d="m39.384 35.763h24.682v30.691h-24.682z" fill="#fff"/><path d="m47.75 58.877h15.099v1.155h-15.099z" fill="#dad8fd"/><path d="m47.75 61.034h6.608v1.155h-6.608z" fill="#dad8fd"/><g><path d="m56.8593102 37.3541107h-10.2682572c-.4318619 0-.7819519-.3500938-.7819519-.7819557v-2.9251328c0-.4318619.35009-.7819557.7819519-.7819557h10.2682571c.4318619 0 .7819557.3500938.7819557.7819557v2.9251328c.0000001.4318619-.3500938.7819557-.7819556.7819557z" fill="#38aefa"/><circle cx="51.627" cy="33.036" fill="#38aefa" r="2.3"/><circle cx="51.627" cy="33.036" fill="#fff" r="1.396"/></g></g><g><g><path d="m46.2341118 40.1205521v4.3815689c0 .2492599-.2039375.4456825-.4532433.4456825h-4.3739586c-.2493057 0-.453289-.1964226-.453289-.4456825v-4.3815689c0-.2492599.2039833-.4532433.453289-.4532433h4.3739586c.2493058 0 .4532433.2039833.4532433.4532433z" fill="#dad8fd"/><g><path d="m42.9251137 43.907692c-.0851326 0-.1702652-.0324936-.2352486-.097477l-.8597717-.8591232c-.1299706-.1299706-.1299706-.3405266 0-.4705009.1299744-.1299706.3405304-.1299706.4705009 0l.6245193.6238708 2.075016-2.075016c.1299706-.1299706.3405266-.1299706.4705009 0 .1299706.1299744.1299706.3405304 0 .4705009l-2.3102646 2.3102684c-.064987.0649834-.1501196.097477-.2352522.097477z" fill="#fff"/></g></g></g><g><g><path d="m46.2341118 48.9730377v4.3815689c0 .2492599-.2039375.4456787-.4532433.4456787h-4.3739586c-.2493057 0-.453289-.1964188-.453289-.4456787v-4.3815689c0-.2492599.2039833-.4532433.453289-.4532433h4.3739586c.2493058.0000001.4532433.2039834.4532433.4532433z" fill="#dad8fd"/><g><path d="m42.9251137 52.7601776c-.0851326 0-.1702652-.0324936-.2352486-.0974808l-.8597717-.8591194c-.1299706-.1299744-.1299706-.3405304 0-.4705009.1299744-.1299744.3405304-.1299744.4705009 0l.6245193.623867 2.075016-2.0750122c.1299706-.1299744.3405266-.1299744.4705009 0 .1299706.1299706.1299706.3405266 0 .4705009l-2.3102646 2.3102646c-.064987.0649872-.1501196.0974808-.2352522.0974808z" fill="#fff"/></g></g></g><g><g><path d="m46.2341118 57.8739166v4.3815689c0 .2492599-.2039375.4456825-.4532433.4456825h-4.3739586c-.2493057 0-.453289-.1964226-.453289-.4456825v-4.3815689c0-.2492599.2039833-.4532433.453289-.4532433h4.3739586c.2493058.0000001.4532433.2039834.4532433.4532433z" fill="#dad8fd"/><g><path d="m42.9251137 61.6610565c-.0851326 0-.1702652-.0324936-.2352486-.0974808l-.8597717-.8591194c-.1299706-.1299706-.1299706-.3405266 0-.4705009.1299744-.1299706.3405304-.1299706.4705009 0l.6245193.6238708 2.075016-2.075016c.1299706-.1299706.3405266-.1299706.4705009 0 .1299706.1299744.1299706.3405304 0 .4705009l-2.3102646 2.3102646c-.064987.0649872-.1501196.0974808-.2352522.0974808z" fill="#fff"/></g></g></g><g><g><g><path d="m68.4246292 58.4019012c-.0107117-.3456459-.2625732-.6431465-.6082153-.7073822l-.6832352-.1339684c-.2357788-.048275-.4420929-.2009506-.5385513-.4233551-.0294647-.077713-.069664-.1580429-.1071625-.2330055-.1044998-.2224045-.0911026-.4796143.0321503-.6940384l.3483124-.5948715c.1741486-.3027382.1178894-.6885452-.1366501-.9242973l-1.564743-1.4602966c-.2518616-.2383652-.6403503-.2679329-.9297256-.0723457l-.5733833.3859406c-.2009506.1339684-.4581604.168766-.6832314.0803261-.0803757-.0294342-.1634369-.0643654-.2464943-.0938034-.2304382-.0803261-.4019012-.2759132-.4662056-.5090485l-.1741638-.6672211c-.0884209-.337532-.4019012-.5679207-.7528954-.5573235l-2.1381111.0750961c-.3456459.0107269-.6403694.2625694-.70467.6028519l-.1339684.6859283c-.0482254.2384987-.2063141.4420662-.4287033.5384865-.0830612.0349312-.1607552.0697289-.2411308.1071472-.2170258.1045303-.4742508.0884399-.6859131-.0320549l-.5948219-.3456459c-.3027687-.1741295-.6859131-.1152573-.9243774.1365852l-1.4602318 1.564827c-.2384644.2518425-.2679329.6402702-.0723457.9296608l.3885078.5761642c.1366501.198204.1688004.45541.0803757.6804314-.0321503.0804596-.0669823.166153-.0964508.2492256-.0750313.2303886-.2706184.3992882-.5064011.4635239l-.6644745.1741295c-.3402824.0884399-.5707016.4046516-.5573082.7529144l.075016 2.1381111c.0107269.3482628.2625847.6457634.6082153.7099991l.6752014.1286049c.2384491.048275.4447632.2009506.5385513.4287224.0348167.0777092.0723305.1581688.1125259.2411156.1044998.217041.0884247.474247-.0375137.6859283l-.3456306.5948715c-.1741638.3027344-.1152077.6885452.1366501.9244232l1.5674095 1.4601669c.2545433.2385025.6403694.2679367.9324074.0723495l.5733833-.3858109c.2009506-.1339645.4581757-.1687698.6805496-.0804596.0830574.0349274.1634521.0643692.2491913.0938034.2331047.0804596.3992233.2760468.4635239.5090485l.1741486.6672211c.0857391.337532.4019012.5680542.7502289.5573273l2.1407928-.0750961c.3509941-.0133438.6430359-.2625732.7073517-.6080856l.1339684-.6805649c.0482254-.2358856.2009506-.4421997.4233246-.5358734.0830574-.0375443.1634521-.0724716.2411461-.1098938.2170296-.1098938.479599-.0938034.6885948.0321884l.5948105.3456421c.3054428.1741333.688591.1151276.9243774-.1367111l1.4602432-1.5674438c.2384644-.2572098.2706146-.6402702.0750122-.9324074l-.3911743-.5786514c-.1339645-.1983337-.1688004-.4501762-.077713-.6753311.0321579-.0829468.0616379-.1634026.0857468-.2411156.0803757-.2330017.2759781-.3991547.5117645-.4635201l.6698303-.1794968c.3376007-.0884399.5680237-.4045181.5572968-.7475471zm-7.8746033 4.448555c-1.7134819 0-3.1008072-1.3896027-3.1008072-3.1008873 0-1.7111778 1.3873253-3.1007805 3.1008072-3.1007805 1.7112579 0 3.1008072 1.3896027 3.1008072 3.1007805 0 1.7112847-1.3895492 3.1008873-3.1008072 3.1008873z" fill="#fdce4b"/></g></g><g><path d="m60.5499268 55.9405632c-2.1044312 0-3.8089828 1.704525-3.8089828 3.8089409 0 2.1044197 1.7045517 3.8090515 3.8089828 3.8090515 2.104435 0 3.8089828-1.7046318 3.8089828-3.8090515 0-2.1044159-1.7045479-3.8089409-3.8089828-3.8089409zm0 6.909832c-1.7134781 0-3.1008034-1.3896027-3.1008034-3.1008911 0-1.711174 1.3873253-3.1007767 3.1008034-3.1007767 1.7112617 0 3.1008072 1.3896027 3.1008072 3.1007767-.0000001 1.7112884-1.3895455 3.1008911-3.1008072 3.1008911z" fill="#f4bc24"/></g></g></g><g fill="#dad8fd"><path d="m47.75 40.356h15.099v1.155h-15.099z"/><path d="m47.75 42.512h6.608v1.155h-6.608z"/><path d="m47.75 49.617h15.099v1.155h-15.099z"/><path d="m47.75 51.773h6.608v1.155h-6.608z"/></g></g></svg>