<svg height="512" viewBox="0 0 128 128" width="512" xmlns="http://www.w3.org/2000/svg"><g><path d="m64 71.176a19.444 19.444 0 0 0 9.019-2.19 19.676 19.676 0 0 0 10.659-17.5v-1.286h-39.368v1.291a19.68 19.68 0 0 0 10.659 17.483 19.391 19.391 0 0 0 9.031 2.202z" fill="#ffd6a1"/><path d="m64 81.078c4.88 0 8.85-2.14 9.01-4.81a.97.97 0 0 0 .01-.17v-7.11a19.651 19.651 0 0 1 -18.05-.01v7.122a1.087 1.087 0 0 0 .01.18c.17 2.668 4.14 4.798 9.02 4.798z" fill="#e8b47c"/><path d="m85.363 38.433-3.456-14.295a6.715 6.715 0 0 0 -6.528-5.138h-23.063a6.717 6.717 0 0 0 -6.528 5.138l-3.455 14.295-6.608 11.767h56.245z" fill="#fca338"/><path d="m42.333 38.433-6.608 11.762h56.245l-6.607-11.762z" fill="#ea891f"/><path d="m101.26 95.658c0-8.9-7.15-16.47-16.83-17.81l-11.42-1.58c-.16 2.67-4.13 4.81-9.01 4.81s-8.85-2.13-9.02-4.8l-11.41 1.57c-9.68 1.34-16.83 8.91-16.83 17.81v13.342h74.52z" fill="#ffe576"/><rect fill="#fffee3" height="17.918" rx="3.514" width="30.666" x="48.661" y="91.082"/><path d="m72.959 100.041a8.959 8.959 0 1 0 -8.959 8.959 8.959 8.959 0 0 0 8.959-8.959z" fill="#5178f2"/><path d="m67.466 100.041a3.466 3.466 0 1 0 -3.466 3.467 3.466 3.466 0 0 0 3.466-3.467z" fill="#81a3f7"/><g fill="#5178f2"><path d="m52.174 92.832a1.749 1.749 0 0 0 1.676-2.256l-4.173-13.834a1.75 1.75 0 1 0 -3.351 1.012l4.174 13.834a1.747 1.747 0 0 0 1.674 1.244z"/><path d="m75.815 92.832a1.749 1.749 0 0 0 1.673-1.243l4.186-13.834a1.75 1.75 0 1 0 -3.35-1.014l-4.185 13.834a1.749 1.749 0 0 0 1.168 2.182 1.718 1.718 0 0 0 .508.075z"/></g></g></svg>